<?xml version="1.0" encoding="UTF-8"?>
<svg xmlns="http://www.w3.org/2000/svg" width="2400" height="1320" viewBox="0 0 2400 1320">
  <defs>
    <linearGradient id="bg" x1="0" y1="0" x2="1" y2="1">
      <stop offset="0" stop-color="#f7f1e8"/>
      <stop offset="0.58" stop-color="#eef5f4"/>
      <stop offset="1" stop-color="#f4eef6"/>
    </linearGradient>
    <filter id="shadow" x="-20%" y="-20%" width="140%" height="150%">
      <feDropShadow dx="0" dy="14" stdDeviation="13" flood-color="#233038" flood-opacity="0.16"/>
    </filter>
    <style>
      .title {
        fill: #17313a;
        font-family: "Avenir Next", "Helvetica Neue", Arial, sans-serif;
        font-size: 88px;
        font-weight: 800;
        letter-spacing: 0;
      }
      .subtitle,
      .legend,
      .footer {
        fill: #40515a;
        font-family: "Avenir Next", "Helvetica Neue", Arial, sans-serif;
        letter-spacing: 0;
      }
      .subtitle {
        font-size: 34px;
        font-weight: 500;
      }
      .legend {
        font-size: 28px;
        font-weight: 650;
      }
      .footer {
        font-size: 24px;
        font-weight: 500;
      }
      .key-body {
        fill: #fffdf9;
        stroke: #c9d2d1;
        stroke-width: 2;
        filter: url(#shadow);
      }
      .divider {
        stroke: #d6dedc;
        stroke-width: 2;
      }
      .key-label {
        fill: #69787f;
        font-family: "Avenir Next", "Helvetica Neue", Arial, sans-serif;
        font-size: 25px;
        font-weight: 800;
        letter-spacing: 0;
      }
      .shift-output,
      .normal-output {
        font-family: "Noto Sans Myanmar", "Myanmar MN", "Padauk", "Avenir Next", sans-serif;
        font-weight: 650;
        text-anchor: middle;
        dominant-baseline: middle;
        letter-spacing: 0;
      }
      .shift-output {
        fill: #8b2f4f;
      }
      .normal-output {
        fill: #0f6b6b;
      }
      .legend-swatch-shift {
        fill: #8b2f4f;
      }
      .legend-swatch-normal {
        fill: #0f6b6b;
      }
      .panel {
        fill: rgba(255, 255, 255, 0.58);
        stroke: #d8dfdd;
        stroke-width: 2;
      }
    </style>
  </defs>
  <rect width="2400" height="1320" fill="url(#bg)"/>
  <rect class="panel" x="70" y="70" width="2260" height="1180" rx="28"/>
  <text class="title" x="120" y="165">TMK Keyboard</text>
  <text class="subtitle" x="124" y="220">Shan Unicode keyboard mapping for macOS</text>
  <g transform="translate(124, 272)">
    <circle class="legend-swatch-shift" cx="14" cy="14" r="10"/>
    <text class="legend" x="36" y="23">Shift output appears at the top of each key</text>
    <circle class="legend-swatch-normal" cx="656" cy="14" r="10"/>
    <text class="legend" x="678" y="23">Normal output appears at the bottom</text>
  </g>
  
    <g class="key" transform="translate(110, 340)">
      <rect class="key-body" width="142" height="132" rx="14"/>
      <line class="divider" x1="18" y1="66" x2="124" y2="66"/>
      <text class="key-label" x="18" y="34">`</text>
      <text class="shift-output" x="71" y="52" font-size="50">ꧤ</text>
      <text class="normal-output" x="71" y="112" font-size="50">ၹ</text>
    </g>
    <g class="key" transform="translate(268, 340)">
      <rect class="key-body" width="142" height="132" rx="14"/>
      <line class="divider" x1="18" y1="66" x2="124" y2="66"/>
      <text class="key-label" x="18" y="34">1</text>
      <text class="shift-output" x="71" y="52" font-size="50">႑</text>
      <text class="normal-output" x="71" y="112" font-size="50">1</text>
    </g>
    <g class="key" transform="translate(426, 340)">
      <rect class="key-body" width="142" height="132" rx="14"/>
      <line class="divider" x1="18" y1="66" x2="124" y2="66"/>
      <text class="key-label" x="18" y="34">2</text>
      <text class="shift-output" x="71" y="52" font-size="50">႒</text>
      <text class="normal-output" x="71" y="112" font-size="50">2</text>
    </g>
    <g class="key" transform="translate(584, 340)">
      <rect class="key-body" width="142" height="132" rx="14"/>
      <line class="divider" x1="18" y1="66" x2="124" y2="66"/>
      <text class="key-label" x="18" y="34">3</text>
      <text class="shift-output" x="71" y="52" font-size="50">႓</text>
      <text class="normal-output" x="71" y="112" font-size="50">3</text>
    </g>
    <g class="key" transform="translate(742, 340)">
      <rect class="key-body" width="142" height="132" rx="14"/>
      <line class="divider" x1="18" y1="66" x2="124" y2="66"/>
      <text class="key-label" x="18" y="34">4</text>
      <text class="shift-output" x="71" y="52" font-size="50">႔</text>
      <text class="normal-output" x="71" y="112" font-size="50">4</text>
    </g>
    <g class="key" transform="translate(900, 340)">
      <rect class="key-body" width="142" height="132" rx="14"/>
      <line class="divider" x1="18" y1="66" x2="124" y2="66"/>
      <text class="key-label" x="18" y="34">5</text>
      <text class="shift-output" x="71" y="52" font-size="50">႕</text>
      <text class="normal-output" x="71" y="112" font-size="50">5</text>
    </g>
    <g class="key" transform="translate(1058, 340)">
      <rect class="key-body" width="142" height="132" rx="14"/>
      <line class="divider" x1="18" y1="66" x2="124" y2="66"/>
      <text class="key-label" x="18" y="34">6</text>
      <text class="shift-output" x="71" y="52" font-size="50">႖</text>
      <text class="normal-output" x="71" y="112" font-size="50">6</text>
    </g>
    <g class="key" transform="translate(1216, 340)">
      <rect class="key-body" width="142" height="132" rx="14"/>
      <line class="divider" x1="18" y1="66" x2="124" y2="66"/>
      <text class="key-label" x="18" y="34">7</text>
      <text class="shift-output" x="71" y="52" font-size="50">႗</text>
      <text class="normal-output" x="71" y="112" font-size="50">7</text>
    </g>
    <g class="key" transform="translate(1374, 340)">
      <rect class="key-body" width="142" height="132" rx="14"/>
      <line class="divider" x1="18" y1="66" x2="124" y2="66"/>
      <text class="key-label" x="18" y="34">8</text>
      <text class="shift-output" x="71" y="52" font-size="50">႘</text>
      <text class="normal-output" x="71" y="112" font-size="50">8</text>
    </g>
    <g class="key" transform="translate(1532, 340)">
      <rect class="key-body" width="142" height="132" rx="14"/>
      <line class="divider" x1="18" y1="66" x2="124" y2="66"/>
      <text class="key-label" x="18" y="34">9</text>
      <text class="shift-output" x="71" y="52" font-size="50">႙</text>
      <text class="normal-output" x="71" y="112" font-size="50">9</text>
    </g>
    <g class="key" transform="translate(1690, 340)">
      <rect class="key-body" width="142" height="132" rx="14"/>
      <line class="divider" x1="18" y1="66" x2="124" y2="66"/>
      <text class="key-label" x="18" y="34">0</text>
      <text class="shift-output" x="71" y="52" font-size="50">႐</text>
      <text class="normal-output" x="71" y="112" font-size="50">0</text>
    </g>
    <g class="key" transform="translate(1848, 340)">
      <rect class="key-body" width="142" height="132" rx="14"/>
      <line class="divider" x1="18" y1="66" x2="124" y2="66"/>
      <text class="key-label" x="18" y="34">-</text>
      <text class="shift-output" x="71" y="52" font-size="50">(</text>
      <text class="normal-output" x="71" y="112" font-size="50">-</text>
    </g>
    <g class="key" transform="translate(2006, 340)">
      <rect class="key-body" width="142" height="132" rx="14"/>
      <line class="divider" x1="18" y1="66" x2="124" y2="66"/>
      <text class="key-label" x="18" y="34">=</text>
      <text class="shift-output" x="71" y="52" font-size="50">)</text>
      <text class="normal-output" x="71" y="112" font-size="50">+</text>
    </g>
    <g class="key" transform="translate(120, 494)">
      <rect class="key-body" width="142" height="132" rx="14"/>
      <line class="divider" x1="18" y1="66" x2="124" y2="66"/>
      <text class="key-label" x="18" y="34">Q</text>
      <text class="shift-output" x="71" y="52" font-size="50">ꩡ</text>
      <text class="normal-output" x="71" y="112" font-size="50">ၸ</text>
    </g>
    <g class="key" transform="translate(278, 494)">
      <rect class="key-body" width="142" height="132" rx="14"/>
      <line class="divider" x1="18" y1="66" x2="124" y2="66"/>
      <text class="key-label" x="18" y="34">W</text>
      <text class="shift-output" x="71" y="52" font-size="50">ၻ</text>
      <text class="normal-output" x="71" y="112" font-size="50">တ</text>
    </g>
    <g class="key" transform="translate(436, 494)">
      <rect class="key-body" width="142" height="132" rx="14"/>
      <line class="divider" x1="18" y1="66" x2="124" y2="66"/>
      <text class="key-label" x="18" y="34">E</text>
      <text class="shift-output" x="71" y="52" font-size="50">ꧣ</text>
      <text class="normal-output" x="71" y="112" font-size="50">ၼ</text>
    </g>
    <g class="key" transform="translate(594, 494)">
      <rect class="key-body" width="142" height="132" rx="14"/>
      <line class="divider" x1="18" y1="66" x2="124" y2="66"/>
      <text class="key-label" x="18" y="34">R</text>
      <text class="shift-output" x="71" y="52" font-size="50">႞</text>
      <text class="normal-output" x="71" y="112" font-size="50">မ</text>
    </g>
    <g class="key" transform="translate(752, 494)">
      <rect class="key-body" width="142" height="132" rx="14"/>
      <line class="divider" x1="18" y1="66" x2="124" y2="66"/>
      <text class="key-label" x="18" y="34">T</text>
      <text class="shift-output" x="71" y="52" font-size="50">ြ</text>
      <text class="normal-output" x="71" y="112" font-size="50">ဢ</text>
    </g>
    <g class="key" transform="translate(910, 494)">
      <rect class="key-body" width="142" height="132" rx="14"/>
      <line class="divider" x1="18" y1="66" x2="124" y2="66"/>
      <text class="key-label" x="18" y="34">Y</text>
      <text class="shift-output" x="71" y="52" font-size="50">ၿ</text>
      <text class="normal-output" x="71" y="112" font-size="50">ပ</text>
    </g>
    <g class="key" transform="translate(1068, 494)">
      <rect class="key-body" width="142" height="132" rx="14"/>
      <line class="divider" x1="18" y1="66" x2="124" y2="66"/>
      <text class="key-label" x="18" y="34">U</text>
      <text class="shift-output" x="71" y="52" font-size="50">ၷ</text>
      <text class="normal-output" x="71" y="112" font-size="50">ၵ</text>
    </g>
    <g class="key" transform="translate(1226, 494)">
      <rect class="key-body" width="142" height="132" rx="14"/>
      <line class="divider" x1="18" y1="66" x2="124" y2="66"/>
      <text class="key-label" x="18" y="34">I</text>
      <text class="shift-output" x="71" y="52" font-size="50">ရ</text>
      <text class="normal-output" x="71" y="112" font-size="50">င</text>
    </g>
    <g class="key" transform="translate(1384, 494)">
      <rect class="key-body" width="142" height="132" rx="14"/>
      <line class="divider" x1="18" y1="66" x2="124" y2="66"/>
      <text class="key-label" x="18" y="34">O</text>
      <text class="shift-output" x="71" y="52" font-size="50">သ</text>
      <text class="normal-output" x="71" y="112" font-size="50">ဝ</text>
    </g>
    <g class="key" transform="translate(1542, 494)">
      <rect class="key-body" width="142" height="132" rx="14"/>
      <line class="divider" x1="18" y1="66" x2="124" y2="66"/>
      <text class="key-label" x="18" y="34">P</text>
      <text class="shift-output" x="71" y="52" font-size="50">ႀ</text>
      <text class="normal-output" x="71" y="112" font-size="50">ႁ</text>
    </g>
    <g class="key" transform="translate(1700, 494)">
      <rect class="key-body" width="142" height="132" rx="14"/>
      <line class="divider" x1="18" y1="66" x2="124" y2="66"/>
      <text class="key-label" x="18" y="34">[</text>
      <text class="shift-output" x="71" y="52" font-size="50">ꧢ</text>
      <text class="normal-output" x="71" y="112" font-size="50">ꧡ</text>
    </g>
    <g class="key" transform="translate(1858, 494)">
      <rect class="key-body" width="142" height="132" rx="14"/>
      <line class="divider" x1="18" y1="66" x2="124" y2="66"/>
      <text class="key-label" x="18" y="34">]</text>
      <text class="shift-output" x="71" y="52" font-size="50">ꩨ</text>
      <text class="normal-output" x="71" y="112" font-size="50">ꩦ</text>
    </g>
    <g class="key" transform="translate(2016, 494)">
      <rect class="key-body" width="142" height="132" rx="14"/>
      <line class="divider" x1="18" y1="66" x2="124" y2="66"/>
      <text class="key-label" x="18" y="34">\</text>
      <text class="shift-output" x="71" y="52" font-size="50">ꩩ</text>
      <text class="normal-output" x="71" y="112" font-size="50">ꩧ</text>
    </g>
    <g class="key" transform="translate(200, 648)">
      <rect class="key-body" width="142" height="132" rx="14"/>
      <line class="divider" x1="18" y1="66" x2="124" y2="66"/>
      <text class="key-label" x="18" y="34">A</text>
      <text class="shift-output" x="71" y="52" font-size="50">ဵ</text>
      <text class="normal-output" x="71" y="112" font-size="50">ေ</text>
    </g>
    <g class="key" transform="translate(358, 648)">
      <rect class="key-body" width="142" height="132" rx="14"/>
      <line class="divider" x1="18" y1="66" x2="124" y2="66"/>
      <text class="key-label" x="18" y="34">S</text>
      <text class="shift-output" x="71" y="52" font-size="50">ႅ</text>
      <text class="normal-output" x="71" y="112" font-size="50">ႄ</text>
    </g>
    <g class="key" transform="translate(516, 648)">
      <rect class="key-body" width="142" height="132" rx="14"/>
      <line class="divider" x1="18" y1="66" x2="124" y2="66"/>
      <text class="key-label" x="18" y="34">D</text>
      <text class="shift-output" x="71" y="52" font-size="50">ီ</text>
      <text class="normal-output" x="71" y="112" font-size="50">ိ</text>
    </g>
    <g class="key" transform="translate(674, 648)">
      <rect class="key-body" width="142" height="132" rx="14"/>
      <line class="divider" x1="18" y1="66" x2="124" y2="66"/>
      <text class="key-label" x="18" y="34">F</text>
      <text class="shift-output" x="71" y="52" font-size="40">ႂ်</text>
      <text class="normal-output" x="71" y="112" font-size="50">်</text>
    </g>
    <g class="key" transform="translate(832, 648)">
      <rect class="key-body" width="142" height="132" rx="14"/>
      <line class="divider" x1="18" y1="66" x2="124" y2="66"/>
      <text class="key-label" x="18" y="34">G</text>
      <text class="shift-output" x="71" y="52" font-size="50">ႂ</text>
      <text class="normal-output" x="71" y="112" font-size="50">ွ</text>
    </g>
    <g class="key" transform="translate(990, 648)">
      <rect class="key-body" width="142" height="132" rx="14"/>
      <line class="divider" x1="18" y1="66" x2="124" y2="66"/>
      <text class="key-label" x="18" y="34">H</text>
      <text class="shift-output" x="71" y="52" font-size="50">ံ</text>
      <text class="normal-output" x="71" y="112" font-size="50">ႉ</text>
    </g>
    <g class="key" transform="translate(1148, 648)">
      <rect class="key-body" width="142" height="132" rx="14"/>
      <line class="divider" x1="18" y1="66" x2="124" y2="66"/>
      <text class="key-label" x="18" y="34">J</text>
      <text class="shift-output" x="71" y="52" font-size="50">ႆ</text>
      <text class="normal-output" x="71" y="112" font-size="50">ႇ</text>
    </g>
    <g class="key" transform="translate(1306, 648)">
      <rect class="key-body" width="142" height="132" rx="14"/>
      <line class="divider" x1="18" y1="66" x2="124" y2="66"/>
      <text class="key-label" x="18" y="34">K</text>
      <text class="shift-output" x="71" y="52" font-size="40">ို</text>
      <text class="normal-output" x="71" y="112" font-size="50">ု</text>
    </g>
    <g class="key" transform="translate(1464, 648)">
      <rect class="key-body" width="142" height="132" rx="14"/>
      <line class="divider" x1="18" y1="66" x2="124" y2="66"/>
      <text class="key-label" x="18" y="34">L</text>
      <text class="shift-output" x="71" y="52" font-size="40">ိူ</text>
      <text class="normal-output" x="71" y="112" font-size="50">ူ</text>
    </g>
    <g class="key" transform="translate(1622, 648)">
      <rect class="key-body" width="142" height="132" rx="14"/>
      <line class="divider" x1="18" y1="66" x2="124" y2="66"/>
      <text class="key-label" x="18" y="34">;</text>
      <text class="shift-output" x="71" y="52" font-size="50">း</text>
      <text class="normal-output" x="71" y="112" font-size="50">ႈ</text>
    </g>
    <g class="key" transform="translate(1780, 648)">
      <rect class="key-body" width="142" height="132" rx="14"/>
      <line class="divider" x1="18" y1="66" x2="124" y2="66"/>
      <text class="key-label" x="18" y="34">'</text>
      <text class="shift-output" x="71" y="52" font-size="50">႟</text>
      <text class="normal-output" x="71" y="112" font-size="50">”</text>
    </g>
    <g class="key" transform="translate(280, 802)">
      <rect class="key-body" width="142" height="132" rx="14"/>
      <line class="divider" x1="18" y1="66" x2="124" y2="66"/>
      <text class="key-label" x="18" y="34">Z</text>
      <text class="shift-output" x="71" y="52" font-size="50">ၾ</text>
      <text class="normal-output" x="71" y="112" font-size="50">ၽ</text>
    </g>
    <g class="key" transform="translate(438, 802)">
      <rect class="key-body" width="142" height="132" rx="14"/>
      <line class="divider" x1="18" y1="66" x2="124" y2="66"/>
      <text class="key-label" x="18" y="34">X</text>
      <text class="shift-output" x="71" y="52" font-size="50">ꩪ</text>
      <text class="normal-output" x="71" y="112" font-size="50">ထ</text>
    </g>
    <g class="key" transform="translate(596, 802)">
      <rect class="key-body" width="142" height="132" rx="14"/>
      <line class="divider" x1="18" y1="66" x2="124" y2="66"/>
      <text class="key-label" x="18" y="34">C</text>
      <text class="shift-output" x="71" y="52" font-size="50">ꧠ</text>
      <text class="normal-output" x="71" y="112" font-size="50">ၶ</text>
    </g>
    <g class="key" transform="translate(754, 802)">
      <rect class="key-body" width="142" height="132" rx="14"/>
      <line class="divider" x1="18" y1="66" x2="124" y2="66"/>
      <text class="key-label" x="18" y="34">V</text>
      <text class="shift-output" x="71" y="52" font-size="50">ꩮ</text>
      <text class="normal-output" x="71" y="112" font-size="50">လ</text>
    </g>
    <g class="key" transform="translate(912, 802)">
      <rect class="key-body" width="142" height="132" rx="14"/>
      <line class="divider" x1="18" y1="66" x2="124" y2="66"/>
      <text class="key-label" x="18" y="34">B</text>
      <text class="shift-output" x="71" y="52" font-size="50">ျ</text>
      <text class="normal-output" x="71" y="112" font-size="50">ယ</text>
    </g>
    <g class="key" transform="translate(1070, 802)">
      <rect class="key-body" width="142" height="132" rx="14"/>
      <line class="divider" x1="18" y1="66" x2="124" y2="66"/>
      <text class="key-label" x="18" y="34">N</text>
      <text class="shift-output" x="71" y="52" font-size="50">ႊ</text>
      <text class="normal-output" x="71" y="112" font-size="50">ၺ</text>
    </g>
    <g class="key" transform="translate(1228, 802)">
      <rect class="key-body" width="142" height="132" rx="14"/>
      <line class="divider" x1="18" y1="66" x2="124" y2="66"/>
      <text class="key-label" x="18" y="34">M</text>
      <text class="shift-output" x="71" y="52" font-size="50">ႃ</text>
      <text class="normal-output" x="71" y="112" font-size="50">ၢ</text>
    </g>
    <g class="key" transform="translate(1386, 802)">
      <rect class="key-body" width="142" height="132" rx="14"/>
      <line class="divider" x1="18" y1="66" x2="124" y2="66"/>
      <text class="key-label" x="18" y="34">,</text>
      <text class="shift-output" x="71" y="52" font-size="50">၊</text>
      <text class="normal-output" x="71" y="112" font-size="50">,</text>
    </g>
    <g class="key" transform="translate(1544, 802)">
      <rect class="key-body" width="142" height="132" rx="14"/>
      <line class="divider" x1="18" y1="66" x2="124" y2="66"/>
      <text class="key-label" x="18" y="34">.</text>
      <text class="shift-output" x="71" y="52" font-size="50">။</text>
      <text class="normal-output" x="71" y="112" font-size="50">.</text>
    </g>
    <g class="key" transform="translate(1702, 802)">
      <rect class="key-body" width="142" height="132" rx="14"/>
      <line class="divider" x1="18" y1="66" x2="124" y2="66"/>
      <text class="key-label" x="18" y="34">/</text>
      <text class="shift-output" x="71" y="52" font-size="50">?</text>
      <text class="normal-output" x="71" y="112" font-size="50">/</text>
    </g>
  <text class="footer" x="120" y="1218">ANSI physical layout. Command, Control, and Option shortcuts keep QWERTY behavior.</text>
</svg>
